<?xml version="1.0" encoding="utf-8" standalone="no"?>
<!DOCTYPE svg PUBLIC "-//W3C//DTD SVG 1.1//EN"
  "http://www.w3.org/Graphics/SVG/1.1/DTD/svg11.dtd">
<svg xmlns:xlink="http://www.w3.org/1999/xlink" width="648pt" height="504pt" viewBox="0 0 648 504" xmlns="http://www.w3.org/2000/svg" version="1.1">
 <metadata>
  <rdf:RDF xmlns:dc="http://purl.org/dc/elements/1.1/" xmlns:cc="http://creativecommons.org/ns#" xmlns:rdf="http://www.w3.org/1999/02/22-rdf-syntax-ns#">
   <cc:Work>
    <dc:type rdf:resource="http://purl.org/dc/dcmitype/StillImage"/>
    <dc:date>2023-06-21T16:50:15.668688</dc:date>
    <dc:format>image/svg+xml</dc:format>
    <dc:creator>
     <cc:Agent>
      <dc:title>Matplotlib v3.6.1, https://matplotlib.org/</dc:title>
     </cc:Agent>
    </dc:creator>
   </cc:Work>
  </rdf:RDF>
 </metadata>
 <defs>
  <style type="text/css">*{stroke-linejoin: round; stroke-linecap: butt}</style>
 </defs>
 <g id="figure_1">
  <g id="patch_1">
   <path d="M 0 504 
L 648 504 
L 648 0 
L 0 0 
z
" style="fill: #ffffff"/>
  </g>
  <g id="axes_1">
   <g id="patch_2">
    <path d="M 253.645714 252 
C 253.645714 240.45145 251.370902 229.015195 246.951463 218.345726 
C 242.532024 207.676256 236.053906 197.981068 227.887848 189.815009 
C 219.72179 181.648951 210.026601 175.170833 199.357132 170.751394 
C 188.687662 166.331955 177.251407 164.057143 165.702857 164.057143 
C 154.154307 164.057143 142.718052 166.331955 132.048583 170.751394 
C 121.379114 175.170833 111.683925 181.648951 103.517867 189.815009 
C 95.351808 197.981068 88.87369 207.676256 84.454251 218.345726 
C 80.034813 229.015195 77.76 240.45145 77.76 252 
C 77.76 263.54855 80.034813 274.984805 84.454251 285.654274 
C 88.87369 296.323744 95.351808 306.018932 103.517867 314.184991 
C 111.683925 322.351049 121.379114 328.829167 132.048583 333.248606 
C 142.718052 337.668045 154.154307 339.942857 165.702857 339.942857 
C 177.251407 339.942857 188.687662 337.668045 199.357132 333.248606 
C 210.026601 328.829167 219.72179 322.351049 227.887848 314.184991 
C 236.053906 306.018932 242.532024 296.323744 246.951463 285.654274 
C 251.370902 274.984805 253.645714 263.54855 253.645714 252 
M 165.702857 252 
C 165.702857 252 165.702857 252 165.702857 252 
C 165.702857 252 165.702857 252 165.702857 252 
C 165.702857 252 165.702857 252 165.702857 252 
C 165.702857 252 165.702857 252 165.702857 252 
C 165.702857 252 165.702857 252 165.702857 252 
C 165.702857 252 165.702857 252 165.702857 252 
C 165.702857 252 165.702857 252 165.702857 252 
C 165.702857 252 165.702857 252 165.702857 252 
C 165.702857 252 165.702857 252 165.702857 252 
C 165.702857 252 165.702857 252 165.702857 252 
C 165.702857 252 165.702857 252 165.702857 252 
C 165.702857 252 165.702857 252 165.702857 252 
C 165.702857 252 165.702857 252 165.702857 252 
C 165.702857 252 165.702857 252 165.702857 252 
C 165.702857 252 165.702857 252 165.702857 252 
C 165.702857 252 165.702857 252 165.702857 252 
M 253.645714 252 
z
" style="fill: #fbfbfc"/>
   </g>
   <g id="patch_3">
    <path d="M 165.702857 171.385715 
L 208.543278 276.733929 
L 108.582296 284.978571 
z
" clip-path="url(#p2d1c989195)" style="fill: #006400; opacity: 0.25; stroke: #006400; stroke-linejoin: miter"/>
   </g>
   <g id="patch_4">
    <path d="M 165.702857 219.021429 
L 177.602974 258.870536 
L 117.15038 280.031786 
z
" clip-path="url(#p2d1c989195)" style="fill: #6495ed; opacity: 0.25; stroke: #6495ed; stroke-linejoin: miter"/>
   </g>
   <g id="matplotlib.axis_1">
    <g id="xtick_1">
     <g id="line2d_1">
      <path d="M 165.702857 252 
L 165.702857 164.057143 
" clip-path="url(#p2d1c989195)" style="fill: none; stroke: #aaaaaa; stroke-width: 0.8; stroke-linecap: square"/>
     </g>
     <g id="text_1">
      <!-- Data -->
      <g style="fill: #222222" transform="translate(151.37692 146.649705) scale(0.12 -0.12)">
       <defs>
        <path id="DejaVuSans-44" d="M 1259 4147 
L 1259 519 
L 2022 519 
Q 2988 519 3436 956 
Q 3884 1394 3884 2338 
Q 3884 3275 3436 3711 
Q 2988 4147 2022 4147 
L 1259 4147 
z
M 628 4666 
L 1925 4666 
Q 3281 4666 3915 4102 
Q 4550 3538 4550 2338 
Q 4550 1131 3912 565 
Q 3275 0 1925 0 
L 628 0 
L 628 4666 
z
" transform="scale(0.015625)"/>
        <path id="DejaVuSans-61" d="M 2194 1759 
Q 1497 1759 1228 1600 
Q 959 1441 959 1056 
Q 959 750 1161 570 
Q 1363 391 1709 391 
Q 2188 391 2477 730 
Q 2766 1069 2766 1631 
L 2766 1759 
L 2194 1759 
z
M 3341 1997 
L 3341 0 
L 2766 0 
L 2766 531 
Q 2569 213 2275 61 
Q 1981 -91 1556 -91 
Q 1019 -91 701 211 
Q 384 513 384 1019 
Q 384 1609 779 1909 
Q 1175 2209 1959 2209 
L 2766 2209 
L 2766 2266 
Q 2766 2663 2505 2880 
Q 2244 3097 1772 3097 
Q 1472 3097 1187 3025 
Q 903 2953 641 2809 
L 641 3341 
Q 956 3463 1253 3523 
Q 1550 3584 1831 3584 
Q 2591 3584 2966 3190 
Q 3341 2797 3341 1997 
z
" transform="scale(0.015625)"/>
        <path id="DejaVuSans-74" d="M 1172 4494 
L 1172 3500 
L 2356 3500 
L 2356 3053 
L 1172 3053 
L 1172 1153 
Q 1172 725 1289 603 
Q 1406 481 1766 481 
L 2356 481 
L 2356 0 
L 1766 0 
Q 1100 0 847 248 
Q 594 497 594 1153 
L 594 3053 
L 172 3053 
L 172 3500 
L 594 3500 
L 594 4494 
L 1172 4494 
z
" transform="scale(0.015625)"/>
       </defs>
       <use xlink:href="#DejaVuSans-44"/>
       <use xlink:href="#DejaVuSans-61" x="77.001953"/>
       <use xlink:href="#DejaVuSans-74" x="138.28125"/>
       <use xlink:href="#DejaVuSans-61" x="177.490234"/>
      </g>
      <!-- Collection -->
      <g style="fill: #222222" transform="translate(136.02442 160.08708) scale(0.12 -0.12)">
       <defs>
        <path id="DejaVuSans-43" d="M 4122 4306 
L 4122 3641 
Q 3803 3938 3442 4084 
Q 3081 4231 2675 4231 
Q 1875 4231 1450 3742 
Q 1025 3253 1025 2328 
Q 1025 1406 1450 917 
Q 1875 428 2675 428 
Q 3081 428 3442 575 
Q 3803 722 4122 1019 
L 4122 359 
Q 3791 134 3420 21 
Q 3050 -91 2638 -91 
Q 1578 -91 968 557 
Q 359 1206 359 2328 
Q 359 3453 968 4101 
Q 1578 4750 2638 4750 
Q 3056 4750 3426 4639 
Q 3797 4528 4122 4306 
z
" transform="scale(0.015625)"/>
        <path id="DejaVuSans-6f" d="M 1959 3097 
Q 1497 3097 1228 2736 
Q 959 2375 959 1747 
Q 959 1119 1226 758 
Q 1494 397 1959 397 
Q 2419 397 2687 759 
Q 2956 1122 2956 1747 
Q 2956 2369 2687 2733 
Q 2419 3097 1959 3097 
z
M 1959 3584 
Q 2709 3584 3137 3096 
Q 3566 2609 3566 1747 
Q 3566 888 3137 398 
Q 2709 -91 1959 -91 
Q 1206 -91 779 398 
Q 353 888 353 1747 
Q 353 2609 779 3096 
Q 1206 3584 1959 3584 
z
" transform="scale(0.015625)"/>
        <path id="DejaVuSans-6c" d="M 603 4863 
L 1178 4863 
L 1178 0 
L 603 0 
L 603 4863 
z
" transform="scale(0.015625)"/>
        <path id="DejaVuSans-65" d="M 3597 1894 
L 3597 1613 
L 953 1613 
Q 991 1019 1311 708 
Q 1631 397 2203 397 
Q 2534 397 2845 478 
Q 3156 559 3463 722 
L 3463 178 
Q 3153 47 2828 -22 
Q 2503 -91 2169 -91 
Q 1331 -91 842 396 
Q 353 884 353 1716 
Q 353 2575 817 3079 
Q 1281 3584 2069 3584 
Q 2775 3584 3186 3129 
Q 3597 2675 3597 1894 
z
M 3022 2063 
Q 3016 2534 2758 2815 
Q 2500 3097 2075 3097 
Q 1594 3097 1305 2825 
Q 1016 2553 972 2059 
L 3022 2063 
z
" transform="scale(0.015625)"/>
        <path id="DejaVuSans-63" d="M 3122 3366 
L 3122 2828 
Q 2878 2963 2633 3030 
Q 2388 3097 2138 3097 
Q 1578 3097 1268 2742 
Q 959 2388 959 1747 
Q 959 1106 1268 751 
Q 1578 397 2138 397 
Q 2388 397 2633 464 
Q 2878 531 3122 666 
L 3122 134 
Q 2881 22 2623 -34 
Q 2366 -91 2075 -91 
Q 1284 -91 818 406 
Q 353 903 353 1747 
Q 353 2603 823 3093 
Q 1294 3584 2113 3584 
Q 2378 3584 2631 3529 
Q 2884 3475 3122 3366 
z
" transform="scale(0.015625)"/>
        <path id="DejaVuSans-69" d="M 603 3500 
L 1178 3500 
L 1178 0 
L 603 0 
L 603 3500 
z
M 603 4863 
L 1178 4863 
L 1178 4134 
L 603 4134 
L 603 4863 
z
" transform="scale(0.015625)"/>
        <path id="DejaVuSans-6e" d="M 3513 2113 
L 3513 0 
L 2938 0 
L 2938 2094 
Q 2938 2591 2744 2837 
Q 2550 3084 2163 3084 
Q 1697 3084 1428 2787 
Q 1159 2491 1159 1978 
L 1159 0 
L 581 0 
L 581 3500 
L 1159 3500 
L 1159 2956 
Q 1366 3272 1645 3428 
Q 1925 3584 2291 3584 
Q 2894 3584 3203 3211 
Q 3513 2838 3513 2113 
z
" transform="scale(0.015625)"/>
       </defs>
       <use xlink:href="#DejaVuSans-43"/>
       <use xlink:href="#DejaVuSans-6f" x="69.824219"/>
       <use xlink:href="#DejaVuSans-6c" x="131.005859"/>
       <use xlink:href="#DejaVuSans-6c" x="158.789062"/>
       <use xlink:href="#DejaVuSans-65" x="186.572266"/>
       <use xlink:href="#DejaVuSans-63" x="248.095703"/>
       <use xlink:href="#DejaVuSans-74" x="303.076172"/>
       <use xlink:href="#DejaVuSans-69" x="342.285156"/>
       <use xlink:href="#DejaVuSans-6f" x="370.068359"/>
       <use xlink:href="#DejaVuSans-6e" x="431.25"/>
      </g>
     </g>
    </g>
    <g id="xtick_2">
     <g id="line2d_2">
      <path d="M 165.702857 252 
L 241.863606 295.971429 
" clip-path="url(#p2d1c989195)" style="fill: none; stroke: #aaaaaa; stroke-width: 0.8; stroke-linecap: square"/>
     </g>
     <g id="text_2">
      <!-- Data -->
      <g style="fill: #222222" transform="translate(250.179924 297.36542) scale(0.12 -0.12)">
       <use xlink:href="#DejaVuSans-44"/>
       <use xlink:href="#DejaVuSans-61" x="77.001953"/>
       <use xlink:href="#DejaVuSans-74" x="138.28125"/>
       <use xlink:href="#DejaVuSans-61" x="177.490234"/>
      </g>
      <!-- Maintenance -->
      <g style="fill: #222222" transform="translate(250.179924 310.802795) scale(0.12 -0.12)">
       <defs>
        <path id="DejaVuSans-4d" d="M 628 4666 
L 1569 4666 
L 2759 1491 
L 3956 4666 
L 4897 4666 
L 4897 0 
L 4281 0 
L 4281 4097 
L 3078 897 
L 2444 897 
L 1241 4097 
L 1241 0 
L 628 0 
L 628 4666 
z
" transform="scale(0.015625)"/>
       </defs>
       <use xlink:href="#DejaVuSans-4d"/>
       <use xlink:href="#DejaVuSans-61" x="86.279297"/>
       <use xlink:href="#DejaVuSans-69" x="147.558594"/>
       <use xlink:href="#DejaVuSans-6e" x="175.341797"/>
       <use xlink:href="#DejaVuSans-74" x="238.720703"/>
       <use xlink:href="#DejaVuSans-65" x="277.929688"/>
       <use xlink:href="#DejaVuSans-6e" x="339.453125"/>
       <use xlink:href="#DejaVuSans-61" x="402.832031"/>
       <use xlink:href="#DejaVuSans-6e" x="464.111328"/>
       <use xlink:href="#DejaVuSans-63" x="527.490234"/>
       <use xlink:href="#DejaVuSans-65" x="582.470703"/>
      </g>
     </g>
    </g>
    <g id="xtick_3">
     <g id="line2d_3">
      <path d="M 165.702857 252 
L 89.542109 295.971429 
" clip-path="url(#p2d1c989195)" style="fill: none; stroke: #aaaaaa; stroke-width: 0.8; stroke-linecap: square"/>
     </g>
     <g id="text_3">
      <!-- Data -->
      <g style="fill: #222222" transform="translate(52.573916 297.36542) scale(0.12 -0.12)">
       <use xlink:href="#DejaVuSans-44"/>
       <use xlink:href="#DejaVuSans-61" x="77.001953"/>
       <use xlink:href="#DejaVuSans-74" x="138.28125"/>
       <use xlink:href="#DejaVuSans-61" x="177.490234"/>
      </g>
      <!-- Usage -->
      <g style="fill: #222222" transform="translate(43.836416 310.802795) scale(0.12 -0.12)">
       <defs>
        <path id="DejaVuSans-55" d="M 556 4666 
L 1191 4666 
L 1191 1831 
Q 1191 1081 1462 751 
Q 1734 422 2344 422 
Q 2950 422 3222 751 
Q 3494 1081 3494 1831 
L 3494 4666 
L 4128 4666 
L 4128 1753 
Q 4128 841 3676 375 
Q 3225 -91 2344 -91 
Q 1459 -91 1007 375 
Q 556 841 556 1753 
L 556 4666 
z
" transform="scale(0.015625)"/>
        <path id="DejaVuSans-73" d="M 2834 3397 
L 2834 2853 
Q 2591 2978 2328 3040 
Q 2066 3103 1784 3103 
Q 1356 3103 1142 2972 
Q 928 2841 928 2578 
Q 928 2378 1081 2264 
Q 1234 2150 1697 2047 
L 1894 2003 
Q 2506 1872 2764 1633 
Q 3022 1394 3022 966 
Q 3022 478 2636 193 
Q 2250 -91 1575 -91 
Q 1294 -91 989 -36 
Q 684 19 347 128 
L 347 722 
Q 666 556 975 473 
Q 1284 391 1588 391 
Q 1994 391 2212 530 
Q 2431 669 2431 922 
Q 2431 1156 2273 1281 
Q 2116 1406 1581 1522 
L 1381 1569 
Q 847 1681 609 1914 
Q 372 2147 372 2553 
Q 372 3047 722 3315 
Q 1072 3584 1716 3584 
Q 2034 3584 2315 3537 
Q 2597 3491 2834 3397 
z
" transform="scale(0.015625)"/>
        <path id="DejaVuSans-67" d="M 2906 1791 
Q 2906 2416 2648 2759 
Q 2391 3103 1925 3103 
Q 1463 3103 1205 2759 
Q 947 2416 947 1791 
Q 947 1169 1205 825 
Q 1463 481 1925 481 
Q 2391 481 2648 825 
Q 2906 1169 2906 1791 
z
M 3481 434 
Q 3481 -459 3084 -895 
Q 2688 -1331 1869 -1331 
Q 1566 -1331 1297 -1286 
Q 1028 -1241 775 -1147 
L 775 -588 
Q 1028 -725 1275 -790 
Q 1522 -856 1778 -856 
Q 2344 -856 2625 -561 
Q 2906 -266 2906 331 
L 2906 616 
Q 2728 306 2450 153 
Q 2172 0 1784 0 
Q 1141 0 747 490 
Q 353 981 353 1791 
Q 353 2603 747 3093 
Q 1141 3584 1784 3584 
Q 2172 3584 2450 3431 
Q 2728 3278 2906 2969 
L 2906 3500 
L 3481 3500 
L 3481 434 
z
" transform="scale(0.015625)"/>
       </defs>
       <use xlink:href="#DejaVuSans-55"/>
       <use xlink:href="#DejaVuSans-73" x="73.193359"/>
       <use xlink:href="#DejaVuSans-61" x="125.292969"/>
       <use xlink:href="#DejaVuSans-67" x="186.572266"/>
       <use xlink:href="#DejaVuSans-65" x="250.048828"/>
      </g>
     </g>
    </g>
    <g id="xtick_4">
     <g id="line2d_4">
      <path d="M 165.702857 252 
L 165.702857 164.057143 
" clip-path="url(#p2d1c989195)" style="fill: none; stroke: #aaaaaa; stroke-width: 0.8; stroke-linecap: square"/>
     </g>
     <g id="text_4">
      <!-- Data -->
      <g style="fill: #222222" transform="translate(151.37692 146.649705) scale(0.12 -0.12)">
       <use xlink:href="#DejaVuSans-44"/>
       <use xlink:href="#DejaVuSans-61" x="77.001953"/>
       <use xlink:href="#DejaVuSans-74" x="138.28125"/>
       <use xlink:href="#DejaVuSans-61" x="177.490234"/>
      </g>
      <!-- Collection -->
      <g style="fill: #222222" transform="translate(136.02442 160.08708) scale(0.12 -0.12)">
       <use xlink:href="#DejaVuSans-43"/>
       <use xlink:href="#DejaVuSans-6f" x="69.824219"/>
       <use xlink:href="#DejaVuSans-6c" x="131.005859"/>
       <use xlink:href="#DejaVuSans-6c" x="158.789062"/>
       <use xlink:href="#DejaVuSans-65" x="186.572266"/>
       <use xlink:href="#DejaVuSans-63" x="248.095703"/>
       <use xlink:href="#DejaVuSans-74" x="303.076172"/>
       <use xlink:href="#DejaVuSans-69" x="342.285156"/>
       <use xlink:href="#DejaVuSans-6f" x="370.068359"/>
       <use xlink:href="#DejaVuSans-6e" x="431.25"/>
      </g>
     </g>
    </g>
   </g>
   <g id="matplotlib.axis_2">
    <g id="ytick_1">
     <g id="line2d_5">
      <path d="M 165.702857 241.007143 
C 167.146426 241.007143 168.575958 241.291494 169.909641 241.843924 
C 171.243325 242.396354 172.455224 243.206119 173.475981 244.226876 
C 174.496738 245.247633 175.306503 246.459532 175.858933 247.793216 
C 176.411363 249.126899 176.695714 250.556431 176.695714 252 
C 176.695714 253.443569 176.411363 254.873101 175.858933 256.206784 
C 175.306503 257.540468 174.496738 258.752367 173.475981 259.773124 
C 172.455224 260.793881 171.243325 261.603646 169.909641 262.156076 
C 168.575958 262.708506 167.146426 262.992857 165.702857 262.992857 
C 164.259288 262.992857 162.829756 262.708506 161.496073 262.156076 
C 160.162389 261.603646 158.950491 260.793881 157.929733 259.773124 
C 156.908976 258.752367 156.099211 257.540468 155.546781 256.206784 
C 154.994352 254.873101 154.71 253.443569 154.71 252 
C 154.71 250.556431 154.994352 249.126899 155.546781 247.793216 
C 156.099211 246.459532 156.908976 245.247633 157.929733 244.226876 
C 158.950491 243.206119 160.162389 242.396354 161.496073 241.843924 
C 162.829756 241.291494 164.259288 241.007143 165.702857 241.007143 
" clip-path="url(#p2d1c989195)" style="fill: none; stroke-dasharray: 2.96,1.28; stroke-dashoffset: 0; stroke: #aaaaaa; stroke-width: 0.8"/>
     </g>
     <g id="text_5">
      <!-- 20% -->
      <g style="fill: #222222" transform="translate(173.475981 241.731251) scale(0.12 -0.12)">
       <defs>
        <path id="DejaVuSans-32" d="M 1228 531 
L 3431 531 
L 3431 0 
L 469 0 
L 469 531 
Q 828 903 1448 1529 
Q 2069 2156 2228 2338 
Q 2531 2678 2651 2914 
Q 2772 3150 2772 3378 
Q 2772 3750 2511 3984 
Q 2250 4219 1831 4219 
Q 1534 4219 1204 4116 
Q 875 4013 500 3803 
L 500 4441 
Q 881 4594 1212 4672 
Q 1544 4750 1819 4750 
Q 2544 4750 2975 4387 
Q 3406 4025 3406 3419 
Q 3406 3131 3298 2873 
Q 3191 2616 2906 2266 
Q 2828 2175 2409 1742 
Q 1991 1309 1228 531 
z
" transform="scale(0.015625)"/>
        <path id="DejaVuSans-30" d="M 2034 4250 
Q 1547 4250 1301 3770 
Q 1056 3291 1056 2328 
Q 1056 1369 1301 889 
Q 1547 409 2034 409 
Q 2525 409 2770 889 
Q 3016 1369 3016 2328 
Q 3016 3291 2770 3770 
Q 2525 4250 2034 4250 
z
M 2034 4750 
Q 2819 4750 3233 4129 
Q 3647 3509 3647 2328 
Q 3647 1150 3233 529 
Q 2819 -91 2034 -91 
Q 1250 -91 836 529 
Q 422 1150 422 2328 
Q 422 3509 836 4129 
Q 1250 4750 2034 4750 
z
" transform="scale(0.015625)"/>
        <path id="DejaVuSans-25" d="M 4653 2053 
Q 4381 2053 4226 1822 
Q 4072 1591 4072 1178 
Q 4072 772 4226 539 
Q 4381 306 4653 306 
Q 4919 306 5073 539 
Q 5228 772 5228 1178 
Q 5228 1588 5073 1820 
Q 4919 2053 4653 2053 
z
M 4653 2450 
Q 5147 2450 5437 2106 
Q 5728 1763 5728 1178 
Q 5728 594 5436 251 
Q 5144 -91 4653 -91 
Q 4153 -91 3862 251 
Q 3572 594 3572 1178 
Q 3572 1766 3864 2108 
Q 4156 2450 4653 2450 
z
M 1428 4353 
Q 1159 4353 1004 4120 
Q 850 3888 850 3481 
Q 850 3069 1003 2837 
Q 1156 2606 1428 2606 
Q 1700 2606 1854 2837 
Q 2009 3069 2009 3481 
Q 2009 3884 1853 4118 
Q 1697 4353 1428 4353 
z
M 4250 4750 
L 4750 4750 
L 1831 -91 
L 1331 -91 
L 4250 4750 
z
M 1428 4750 
Q 1922 4750 2215 4408 
Q 2509 4066 2509 3481 
Q 2509 2891 2217 2550 
Q 1925 2209 1428 2209 
Q 931 2209 642 2551 
Q 353 2894 353 3481 
Q 353 4063 643 4406 
Q 934 4750 1428 4750 
z
" transform="scale(0.015625)"/>
       </defs>
       <use xlink:href="#DejaVuSans-32"/>
       <use xlink:href="#DejaVuSans-30" x="63.623047"/>
       <use xlink:href="#DejaVuSans-25" x="127.246094"/>
      </g>
     </g>
    </g>
    <g id="ytick_2">
     <g id="line2d_6">
      <path d="M 165.702857 230.014286 
C 168.589995 230.014286 171.449058 230.582989 174.116426 231.687849 
C 176.783793 232.792708 179.20759 234.412238 181.249105 236.453752 
C 183.290619 238.495267 184.910149 240.919064 186.015009 243.586431 
C 187.119868 246.253799 187.688571 249.112862 187.688571 252 
C 187.688571 254.887138 187.119868 257.746201 186.015009 260.413569 
C 184.910149 263.080936 183.290619 265.504733 181.249105 267.546248 
C 179.20759 269.587762 176.783793 271.207292 174.116426 272.312151 
C 171.449058 273.417011 168.589995 273.985714 165.702857 273.985714 
C 162.81572 273.985714 159.956656 273.417011 157.289289 272.312151 
C 154.621921 271.207292 152.198124 269.587762 150.156609 267.546248 
C 148.115095 265.504733 146.495565 263.080936 145.390706 260.413569 
C 144.285846 257.746201 143.717143 254.887138 143.717143 252 
C 143.717143 249.112862 144.285846 246.253799 145.390706 243.586431 
C 146.495565 240.919064 148.115095 238.495267 150.156609 236.453752 
C 152.198124 234.412238 154.621921 232.792708 157.289289 231.687849 
C 159.956656 230.582989 162.81572 230.014286 165.702857 230.014286 
" clip-path="url(#p2d1c989195)" style="fill: none; stroke: #aaaaaa; stroke-width: 0.8; stroke-linecap: square"/>
     </g>
    </g>
    <g id="ytick_3">
     <g id="line2d_7">
      <path d="M 165.702857 219.021429 
C 170.033563 219.021429 174.322159 219.874483 178.32321 221.531773 
C 182.324261 223.189062 185.959957 225.618357 189.022229 228.680629 
C 192.0845 231.7429 194.513795 235.378596 196.171084 239.379647 
C 197.828374 243.380698 198.681429 247.669294 198.681429 252 
C 198.681429 256.330706 197.828374 260.619302 196.171084 264.620353 
C 194.513795 268.621404 192.0845 272.2571 189.022229 275.319371 
C 185.959957 278.381643 182.324261 280.810938 178.32321 282.468227 
C 174.322159 284.125517 170.033563 284.978571 165.702857 284.978571 
C 161.372151 284.978571 157.083555 284.125517 153.082504 282.468227 
C 149.081453 280.810938 145.445757 278.381643 142.383486 275.319371 
C 139.321214 272.2571 136.89192 268.621404 135.23463 264.620353 
C 133.57734 260.619302 132.724286 256.330706 132.724286 252 
C 132.724286 247.669294 133.57734 243.380698 135.23463 239.379647 
C 136.89192 235.378596 139.321214 231.7429 142.383486 228.680629 
C 145.445757 225.618357 149.081453 223.189062 153.082504 221.531773 
C 157.083555 219.874483 161.372151 219.021429 165.702857 219.021429 
" clip-path="url(#p2d1c989195)" style="fill: none; stroke-dasharray: 2.96,1.28; stroke-dashoffset: 0; stroke: #aaaaaa; stroke-width: 0.8"/>
     </g>
     <g id="text_6">
      <!-- 40% -->
      <g style="fill: #222222" transform="translate(189.022229 226.185004) scale(0.12 -0.12)">
       <defs>
        <path id="DejaVuSans-34" d="M 2419 4116 
L 825 1625 
L 2419 1625 
L 2419 4116 
z
M 2253 4666 
L 3047 4666 
L 3047 1625 
L 3713 1625 
L 3713 1100 
L 3047 1100 
L 3047 0 
L 2419 0 
L 2419 1100 
L 313 1100 
L 313 1709 
L 2253 4666 
z
" transform="scale(0.015625)"/>
       </defs>
       <use xlink:href="#DejaVuSans-34"/>
       <use xlink:href="#DejaVuSans-30" x="63.623047"/>
       <use xlink:href="#DejaVuSans-25" x="127.246094"/>
      </g>
     </g>
    </g>
    <g id="ytick_4">
     <g id="line2d_8">
      <path d="M 165.702857 208.028571 
C 171.477132 208.028571 177.19526 209.165978 182.529994 211.375697 
C 187.864729 213.585417 192.712323 216.824476 196.795352 220.907505 
C 200.878382 224.990534 204.117441 229.838128 206.32716 235.172863 
C 208.536879 240.507597 209.674286 246.225725 209.674286 252 
C 209.674286 257.774275 208.536879 263.492403 206.32716 268.827137 
C 204.117441 274.161872 200.878382 279.009466 196.795352 283.092495 
C 192.712323 287.175524 187.864729 290.414583 182.529994 292.624303 
C 177.19526 294.834022 171.477132 295.971429 165.702857 295.971429 
C 159.928582 295.971429 154.210455 294.834022 148.87572 292.624303 
C 143.540985 290.414583 138.693391 287.175524 134.610362 283.092495 
C 130.527333 279.009466 127.288274 274.161872 125.078554 268.827137 
C 122.868835 263.492403 121.731429 257.774275 121.731429 252 
C 121.731429 246.225725 122.868835 240.507597 125.078554 235.172863 
C 127.288274 229.838128 130.527333 224.990534 134.610362 220.907505 
C 138.693391 216.824476 143.540985 213.585417 148.87572 211.375697 
C 154.210455 209.165978 159.928582 208.028571 165.702857 208.028571 
" clip-path="url(#p2d1c989195)" style="fill: none; stroke: #aaaaaa; stroke-width: 0.8; stroke-linecap: square"/>
     </g>
    </g>
    <g id="ytick_5">
     <g id="line2d_9">
      <path d="M 165.702857 197.035714 
C 172.920701 197.035714 180.06836 198.457472 186.736779 201.219621 
C 193.405197 203.981771 199.46469 208.030595 204.568476 213.134381 
C 209.672263 218.238167 213.721086 224.29766 216.483236 230.966078 
C 219.245385 237.634497 220.667143 244.782156 220.667143 252 
C 220.667143 259.217844 219.245385 266.365503 216.483236 273.033922 
C 213.721086 279.70234 209.672263 285.761833 204.568476 290.865619 
C 199.46469 295.969405 193.405197 300.018229 186.736779 302.780379 
C 180.06836 305.542528 172.920701 306.964286 165.702857 306.964286 
C 158.485013 306.964286 151.337354 305.542528 144.668936 302.780379 
C 138.000517 300.018229 131.941024 295.969405 126.837238 290.865619 
C 121.733452 285.761833 117.684628 279.70234 114.922479 273.033922 
C 112.160329 266.365503 110.738571 259.217844 110.738571 252 
C 110.738571 244.782156 112.160329 237.634497 114.922479 230.966078 
C 117.684628 224.29766 121.733452 218.238167 126.837238 213.134381 
C 131.941024 208.030595 138.000517 203.981771 144.668936 201.219621 
C 151.337354 198.457472 158.485013 197.035714 165.702857 197.035714 
" clip-path="url(#p2d1c989195)" style="fill: none; stroke-dasharray: 2.96,1.28; stroke-dashoffset: 0; stroke: #aaaaaa; stroke-width: 0.8"/>
     </g>
     <g id="text_7">
      <!-- 60% -->
      <g style="fill: #222222" transform="translate(204.568476 210.638756) scale(0.12 -0.12)">
       <defs>
        <path id="DejaVuSans-36" d="M 2113 2584 
Q 1688 2584 1439 2293 
Q 1191 2003 1191 1497 
Q 1191 994 1439 701 
Q 1688 409 2113 409 
Q 2538 409 2786 701 
Q 3034 994 3034 1497 
Q 3034 2003 2786 2293 
Q 2538 2584 2113 2584 
z
M 3366 4563 
L 3366 3988 
Q 3128 4100 2886 4159 
Q 2644 4219 2406 4219 
Q 1781 4219 1451 3797 
Q 1122 3375 1075 2522 
Q 1259 2794 1537 2939 
Q 1816 3084 2150 3084 
Q 2853 3084 3261 2657 
Q 3669 2231 3669 1497 
Q 3669 778 3244 343 
Q 2819 -91 2113 -91 
Q 1303 -91 875 529 
Q 447 1150 447 2328 
Q 447 3434 972 4092 
Q 1497 4750 2381 4750 
Q 2619 4750 2861 4703 
Q 3103 4656 3366 4563 
z
" transform="scale(0.015625)"/>
       </defs>
       <use xlink:href="#DejaVuSans-36"/>
       <use xlink:href="#DejaVuSans-30" x="63.623047"/>
       <use xlink:href="#DejaVuSans-25" x="127.246094"/>
      </g>
     </g>
    </g>
    <g id="ytick_6">
     <g id="line2d_10">
      <path d="M 165.702857 186.042857 
C 174.36427 186.042857 182.941461 187.748967 190.943563 191.063546 
C 198.945665 194.378125 206.217057 199.236713 212.3416 205.361257 
C 218.466144 211.485801 223.324732 218.757192 226.639311 226.759294 
C 229.953891 234.761396 231.66 243.338587 231.66 252 
C 231.66 260.661413 229.953891 269.238604 226.639311 277.240706 
C 223.324732 285.242808 218.466144 292.514199 212.3416 298.638743 
C 206.217057 304.763287 198.945665 309.621875 190.943563 312.936454 
C 182.941461 316.251033 174.36427 317.957143 165.702857 317.957143 
C 157.041445 317.957143 148.464253 316.251033 140.462151 312.936454 
C 132.460049 309.621875 125.188658 304.763287 119.064114 298.638743 
C 112.939571 292.514199 108.080982 285.242808 104.766403 277.240706 
C 101.451824 269.238604 99.745714 260.661413 99.745714 252 
C 99.745714 243.338587 101.451824 234.761396 104.766403 226.759294 
C 108.080982 218.757192 112.939571 211.485801 119.064114 205.361257 
C 125.188658 199.236713 132.460049 194.378125 140.462151 191.063546 
C 148.464253 187.748967 157.041445 186.042857 165.702857 186.042857 
" clip-path="url(#p2d1c989195)" style="fill: none; stroke: #aaaaaa; stroke-width: 0.8; stroke-linecap: square"/>
     </g>
    </g>
    <g id="ytick_7">
     <g id="line2d_11">
      <path d="M 165.702857 175.05 
C 175.807839 175.05 185.814562 177.040461 195.150347 180.90747 
C 204.486133 184.774479 212.969423 190.442832 220.114724 197.588133 
C 227.260025 204.733434 232.928378 213.216724 236.795387 222.55251 
C 240.662396 231.888295 242.652857 241.895019 242.652857 252 
C 242.652857 262.104981 240.662396 272.111705 236.795387 281.44749 
C 232.928378 290.783276 227.260025 299.266566 220.114724 306.411867 
C 212.969423 313.557168 204.486133 319.225521 195.150347 323.09253 
C 185.814562 326.959539 175.807839 328.95 165.702857 328.95 
C 155.597876 328.95 145.591153 326.959539 136.255367 323.09253 
C 126.919582 319.225521 118.436291 313.557168 111.29099 306.411867 
C 104.145689 299.266566 98.477336 290.783276 94.610327 281.44749 
C 90.743318 272.111705 88.752857 262.104981 88.752857 252 
C 88.752857 241.895019 90.743318 231.888295 94.610327 222.55251 
C 98.477336 213.216724 104.145689 204.733434 111.29099 197.588133 
C 118.436291 190.442832 126.919582 184.774479 136.255367 180.90747 
C 145.591153 177.040461 155.597876 175.05 165.702857 175.05 
" clip-path="url(#p2d1c989195)" style="fill: none; stroke-dasharray: 2.96,1.28; stroke-dashoffset: 0; stroke: #aaaaaa; stroke-width: 0.8"/>
     </g>
     <g id="text_8">
      <!-- 80% -->
      <g style="fill: #222222" transform="translate(220.114724 195.092508) scale(0.12 -0.12)">
       <defs>
        <path id="DejaVuSans-38" d="M 2034 2216 
Q 1584 2216 1326 1975 
Q 1069 1734 1069 1313 
Q 1069 891 1326 650 
Q 1584 409 2034 409 
Q 2484 409 2743 651 
Q 3003 894 3003 1313 
Q 3003 1734 2745 1975 
Q 2488 2216 2034 2216 
z
M 1403 2484 
Q 997 2584 770 2862 
Q 544 3141 544 3541 
Q 544 4100 942 4425 
Q 1341 4750 2034 4750 
Q 2731 4750 3128 4425 
Q 3525 4100 3525 3541 
Q 3525 3141 3298 2862 
Q 3072 2584 2669 2484 
Q 3125 2378 3379 2068 
Q 3634 1759 3634 1313 
Q 3634 634 3220 271 
Q 2806 -91 2034 -91 
Q 1263 -91 848 271 
Q 434 634 434 1313 
Q 434 1759 690 2068 
Q 947 2378 1403 2484 
z
M 1172 3481 
Q 1172 3119 1398 2916 
Q 1625 2713 2034 2713 
Q 2441 2713 2670 2916 
Q 2900 3119 2900 3481 
Q 2900 3844 2670 4047 
Q 2441 4250 2034 4250 
Q 1625 4250 1398 4047 
Q 1172 3844 1172 3481 
z
" transform="scale(0.015625)"/>
       </defs>
       <use xlink:href="#DejaVuSans-38"/>
       <use xlink:href="#DejaVuSans-30" x="63.623047"/>
       <use xlink:href="#DejaVuSans-25" x="127.246094"/>
      </g>
     </g>
    </g>
    <g id="ytick_8">
     <g id="line2d_12">
      <path d="M 165.702857 164.057143 
C 177.251407 164.057143 188.687662 166.331955 199.357132 170.751394 
C 210.026601 175.170833 219.72179 181.648951 227.887848 189.815009 
C 236.053906 197.981068 242.532024 207.676256 246.951463 218.345726 
C 251.370902 229.015195 253.645714 240.45145 253.645714 252 
C 253.645714 263.54855 251.370902 274.984805 246.951463 285.654274 
C 242.532024 296.323744 236.053906 306.018932 227.887848 314.184991 
C 219.72179 322.351049 210.026601 328.829167 199.357132 333.248606 
C 188.687662 337.668045 177.251407 339.942857 165.702857 339.942857 
C 154.154307 339.942857 142.718052 337.668045 132.048583 333.248606 
C 121.379114 328.829167 111.683925 322.351049 103.517867 314.184991 
C 95.351808 306.018932 88.87369 296.323744 84.454251 285.654274 
C 80.034813 274.984805 77.76 263.54855 77.76 252 
C 77.76 240.45145 80.034813 229.015195 84.454251 218.345726 
C 88.87369 207.676256 95.351808 197.981068 103.517867 189.815009 
C 111.683925 181.648951 121.379114 175.170833 132.048583 170.751394 
C 142.718052 166.331955 154.154307 164.057143 165.702857 164.057143 
" clip-path="url(#p2d1c989195)" style="fill: none; stroke: #aaaaaa; stroke-width: 0.8; stroke-linecap: square"/>
     </g>
    </g>
   </g>
   <g id="line2d_13">
    <path d="M 165.702857 171.385715 
L 208.543278 276.733929 
L 108.582296 284.978571 
L 165.702857 171.385715 
" clip-path="url(#p2d1c989195)" style="fill: none; stroke: #006400; stroke-linecap: square"/>
   </g>
   <g id="line2d_14">
    <path d="M 165.702857 219.021429 
L 177.602974 258.870536 
L 117.15038 280.031786 
L 165.702857 219.021429 
" clip-path="url(#p2d1c989195)" style="fill: none; stroke: #6495ed; stroke-linecap: square"/>
   </g>
   <g id="patch_5">
    <path d="M 165.702857 164.057143 
C 154.154307 164.057143 142.718052 166.331955 132.048583 170.751394 
C 121.379114 175.170833 111.683925 181.648951 103.517867 189.815009 
C 95.351808 197.981068 88.87369 207.676256 84.454251 218.345726 
C 80.034813 229.015195 77.76 240.45145 77.76 252 
C 77.76 263.54855 80.034813 274.984805 84.454251 285.654274 
C 88.87369 296.323744 95.351808 306.018932 103.517867 314.184991 
C 111.683925 322.351049 121.379114 328.829167 132.048583 333.248606 
C 142.718052 337.668045 154.154307 339.942857 165.702857 339.942857 
C 177.251407 339.942857 188.687662 337.668045 199.357132 333.248606 
C 210.026601 328.829167 219.72179 322.351049 227.887848 314.184991 
C 236.053906 306.018932 242.532024 296.323744 246.951463 285.654274 
C 251.370902 274.984805 253.645714 263.54855 253.645714 252 
C 253.645714 240.45145 251.370902 229.015195 246.951463 218.345726 
C 242.532024 207.676256 236.053906 197.981068 227.887848 189.815009 
C 219.72179 181.648951 210.026601 175.170833 199.357132 170.751394 
C 188.687662 166.331955 177.251407 164.057143 165.702857 164.057143 
" style="fill: none; stroke: #222222; stroke-width: 0.8; stroke-linejoin: miter; stroke-linecap: square"/>
   </g>
   <g id="legend_1">
    <g id="patch_6">
     <path d="M 10.843482 405.297143 
L 320.562232 405.297143 
Q 322.562232 405.297143 322.562232 403.297143 
L 322.562232 374.940893 
Q 322.562232 372.940893 320.562232 372.940893 
L 10.843482 372.940893 
Q 8.843482 372.940893 8.843482 374.940893 
L 8.843482 403.297143 
Q 8.843482 405.297143 10.843482 405.297143 
z
" style="fill: #ffffff; opacity: 0.8; stroke: #cccccc; stroke-linejoin: miter"/>
    </g>
    <g id="line2d_15">
     <path d="M 12.843482 381.03933 
L 22.843482 381.03933 
L 32.843482 381.03933 
" style="fill: none; stroke: #006400; stroke-linecap: square"/>
    </g>
    <g id="text_9">
     <!-- http://taxref.mnhn.fr/lod/taxref-ld -->
     <g transform="translate(40.843482 384.53933) scale(0.1 -0.1)">
      <defs>
       <path id="DejaVuSans-68" d="M 3513 2113 
L 3513 0 
L 2938 0 
L 2938 2094 
Q 2938 2591 2744 2837 
Q 2550 3084 2163 3084 
Q 1697 3084 1428 2787 
Q 1159 2491 1159 1978 
L 1159 0 
L 581 0 
L 581 4863 
L 1159 4863 
L 1159 2956 
Q 1366 3272 1645 3428 
Q 1925 3584 2291 3584 
Q 2894 3584 3203 3211 
Q 3513 2838 3513 2113 
z
" transform="scale(0.015625)"/>
       <path id="DejaVuSans-70" d="M 1159 525 
L 1159 -1331 
L 581 -1331 
L 581 3500 
L 1159 3500 
L 1159 2969 
Q 1341 3281 1617 3432 
Q 1894 3584 2278 3584 
Q 2916 3584 3314 3078 
Q 3713 2572 3713 1747 
Q 3713 922 3314 415 
Q 2916 -91 2278 -91 
Q 1894 -91 1617 61 
Q 1341 213 1159 525 
z
M 3116 1747 
Q 3116 2381 2855 2742 
Q 2594 3103 2138 3103 
Q 1681 3103 1420 2742 
Q 1159 2381 1159 1747 
Q 1159 1113 1420 752 
Q 1681 391 2138 391 
Q 2594 391 2855 752 
Q 3116 1113 3116 1747 
z
" transform="scale(0.015625)"/>
       <path id="DejaVuSans-3a" d="M 750 794 
L 1409 794 
L 1409 0 
L 750 0 
L 750 794 
z
M 750 3309 
L 1409 3309 
L 1409 2516 
L 750 2516 
L 750 3309 
z
" transform="scale(0.015625)"/>
       <path id="DejaVuSans-2f" d="M 1625 4666 
L 2156 4666 
L 531 -594 
L 0 -594 
L 1625 4666 
z
" transform="scale(0.015625)"/>
       <path id="DejaVuSans-78" d="M 3513 3500 
L 2247 1797 
L 3578 0 
L 2900 0 
L 1881 1375 
L 863 0 
L 184 0 
L 1544 1831 
L 300 3500 
L 978 3500 
L 1906 2253 
L 2834 3500 
L 3513 3500 
z
" transform="scale(0.015625)"/>
       <path id="DejaVuSans-72" d="M 2631 2963 
Q 2534 3019 2420 3045 
Q 2306 3072 2169 3072 
Q 1681 3072 1420 2755 
Q 1159 2438 1159 1844 
L 1159 0 
L 581 0 
L 581 3500 
L 1159 3500 
L 1159 2956 
Q 1341 3275 1631 3429 
Q 1922 3584 2338 3584 
Q 2397 3584 2469 3576 
Q 2541 3569 2628 3553 
L 2631 2963 
z
" transform="scale(0.015625)"/>
       <path id="DejaVuSans-66" d="M 2375 4863 
L 2375 4384 
L 1825 4384 
Q 1516 4384 1395 4259 
Q 1275 4134 1275 3809 
L 1275 3500 
L 2222 3500 
L 2222 3053 
L 1275 3053 
L 1275 0 
L 697 0 
L 697 3053 
L 147 3053 
L 147 3500 
L 697 3500 
L 697 3744 
Q 697 4328 969 4595 
Q 1241 4863 1831 4863 
L 2375 4863 
z
" transform="scale(0.015625)"/>
       <path id="DejaVuSans-2e" d="M 684 794 
L 1344 794 
L 1344 0 
L 684 0 
L 684 794 
z
" transform="scale(0.015625)"/>
       <path id="DejaVuSans-6d" d="M 3328 2828 
Q 3544 3216 3844 3400 
Q 4144 3584 4550 3584 
Q 5097 3584 5394 3201 
Q 5691 2819 5691 2113 
L 5691 0 
L 5113 0 
L 5113 2094 
Q 5113 2597 4934 2840 
Q 4756 3084 4391 3084 
Q 3944 3084 3684 2787 
Q 3425 2491 3425 1978 
L 3425 0 
L 2847 0 
L 2847 2094 
Q 2847 2600 2669 2842 
Q 2491 3084 2119 3084 
Q 1678 3084 1418 2786 
Q 1159 2488 1159 1978 
L 1159 0 
L 581 0 
L 581 3500 
L 1159 3500 
L 1159 2956 
Q 1356 3278 1631 3431 
Q 1906 3584 2284 3584 
Q 2666 3584 2933 3390 
Q 3200 3197 3328 2828 
z
" transform="scale(0.015625)"/>
       <path id="DejaVuSans-64" d="M 2906 2969 
L 2906 4863 
L 3481 4863 
L 3481 0 
L 2906 0 
L 2906 525 
Q 2725 213 2448 61 
Q 2172 -91 1784 -91 
Q 1150 -91 751 415 
Q 353 922 353 1747 
Q 353 2572 751 3078 
Q 1150 3584 1784 3584 
Q 2172 3584 2448 3432 
Q 2725 3281 2906 2969 
z
M 947 1747 
Q 947 1113 1208 752 
Q 1469 391 1925 391 
Q 2381 391 2643 752 
Q 2906 1113 2906 1747 
Q 2906 2381 2643 2742 
Q 2381 3103 1925 3103 
Q 1469 3103 1208 2742 
Q 947 2381 947 1747 
z
" transform="scale(0.015625)"/>
       <path id="DejaVuSans-2d" d="M 313 2009 
L 1997 2009 
L 1997 1497 
L 313 1497 
L 313 2009 
z
" transform="scale(0.015625)"/>
      </defs>
      <use xlink:href="#DejaVuSans-68"/>
      <use xlink:href="#DejaVuSans-74" x="63.378906"/>
      <use xlink:href="#DejaVuSans-74" x="102.587891"/>
      <use xlink:href="#DejaVuSans-70" x="141.796875"/>
      <use xlink:href="#DejaVuSans-3a" x="205.273438"/>
      <use xlink:href="#DejaVuSans-2f" x="238.964844"/>
      <use xlink:href="#DejaVuSans-2f" x="272.65625"/>
      <use xlink:href="#DejaVuSans-74" x="306.347656"/>
      <use xlink:href="#DejaVuSans-61" x="345.556641"/>
      <use xlink:href="#DejaVuSans-78" x="406.835938"/>
      <use xlink:href="#DejaVuSans-72" x="466.015625"/>
      <use xlink:href="#DejaVuSans-65" x="504.878906"/>
      <use xlink:href="#DejaVuSans-66" x="566.402344"/>
      <use xlink:href="#DejaVuSans-2e" x="594.357422"/>
      <use xlink:href="#DejaVuSans-6d" x="626.144531"/>
      <use xlink:href="#DejaVuSans-6e" x="723.556641"/>
      <use xlink:href="#DejaVuSans-68" x="786.935547"/>
      <use xlink:href="#DejaVuSans-6e" x="850.314453"/>
      <use xlink:href="#DejaVuSans-2e" x="913.693359"/>
      <use xlink:href="#DejaVuSans-66" x="945.480469"/>
      <use xlink:href="#DejaVuSans-72" x="980.685547"/>
      <use xlink:href="#DejaVuSans-2f" x="1021.798828"/>
      <use xlink:href="#DejaVuSans-6c" x="1055.490234"/>
      <use xlink:href="#DejaVuSans-6f" x="1083.273438"/>
      <use xlink:href="#DejaVuSans-64" x="1144.455078"/>
      <use xlink:href="#DejaVuSans-2f" x="1207.931641"/>
      <use xlink:href="#DejaVuSans-74" x="1241.623047"/>
      <use xlink:href="#DejaVuSans-61" x="1280.832031"/>
      <use xlink:href="#DejaVuSans-78" x="1342.111328"/>
      <use xlink:href="#DejaVuSans-72" x="1401.291016"/>
      <use xlink:href="#DejaVuSans-65" x="1440.154297"/>
      <use xlink:href="#DejaVuSans-66" x="1501.677734"/>
      <use xlink:href="#DejaVuSans-2d" x="1531.382812"/>
      <use xlink:href="#DejaVuSans-6c" x="1567.466797"/>
      <use xlink:href="#DejaVuSans-64" x="1595.25"/>
     </g>
    </g>
    <g id="line2d_16">
     <path d="M 12.843482 395.717455 
L 22.843482 395.717455 
L 32.843482 395.717455 
" style="fill: none; stroke: #6495ed; stroke-linecap: square"/>
    </g>
    <g id="text_10">
     <!-- http://rdf.muninn-project.org/ww1/muninn-ww1-dataset -->
     <g transform="translate(40.843482 399.217455) scale(0.1 -0.1)">
      <defs>
       <path id="DejaVuSans-75" d="M 544 1381 
L 544 3500 
L 1119 3500 
L 1119 1403 
Q 1119 906 1312 657 
Q 1506 409 1894 409 
Q 2359 409 2629 706 
Q 2900 1003 2900 1516 
L 2900 3500 
L 3475 3500 
L 3475 0 
L 2900 0 
L 2900 538 
Q 2691 219 2414 64 
Q 2138 -91 1772 -91 
Q 1169 -91 856 284 
Q 544 659 544 1381 
z
M 1991 3584 
L 1991 3584 
z
" transform="scale(0.015625)"/>
       <path id="DejaVuSans-6a" d="M 603 3500 
L 1178 3500 
L 1178 -63 
Q 1178 -731 923 -1031 
Q 669 -1331 103 -1331 
L -116 -1331 
L -116 -844 
L 38 -844 
Q 366 -844 484 -692 
Q 603 -541 603 -63 
L 603 3500 
z
M 603 4863 
L 1178 4863 
L 1178 4134 
L 603 4134 
L 603 4863 
z
" transform="scale(0.015625)"/>
       <path id="DejaVuSans-77" d="M 269 3500 
L 844 3500 
L 1563 769 
L 2278 3500 
L 2956 3500 
L 3675 769 
L 4391 3500 
L 4966 3500 
L 4050 0 
L 3372 0 
L 2619 2869 
L 1863 0 
L 1184 0 
L 269 3500 
z
" transform="scale(0.015625)"/>
       <path id="DejaVuSans-31" d="M 794 531 
L 1825 531 
L 1825 4091 
L 703 3866 
L 703 4441 
L 1819 4666 
L 2450 4666 
L 2450 531 
L 3481 531 
L 3481 0 
L 794 0 
L 794 531 
z
" transform="scale(0.015625)"/>
      </defs>
      <use xlink:href="#DejaVuSans-68"/>
      <use xlink:href="#DejaVuSans-74" x="63.378906"/>
      <use xlink:href="#DejaVuSans-74" x="102.587891"/>
      <use xlink:href="#DejaVuSans-70" x="141.796875"/>
      <use xlink:href="#DejaVuSans-3a" x="205.273438"/>
      <use xlink:href="#DejaVuSans-2f" x="238.964844"/>
      <use xlink:href="#DejaVuSans-2f" x="272.65625"/>
      <use xlink:href="#DejaVuSans-72" x="306.347656"/>
      <use xlink:href="#DejaVuSans-64" x="345.710938"/>
      <use xlink:href="#DejaVuSans-66" x="409.1875"/>
      <use xlink:href="#DejaVuSans-2e" x="437.142578"/>
      <use xlink:href="#DejaVuSans-6d" x="468.929688"/>
      <use xlink:href="#DejaVuSans-75" x="566.341797"/>
      <use xlink:href="#DejaVuSans-6e" x="629.720703"/>
      <use xlink:href="#DejaVuSans-69" x="693.099609"/>
      <use xlink:href="#DejaVuSans-6e" x="720.882812"/>
      <use xlink:href="#DejaVuSans-6e" x="784.261719"/>
      <use xlink:href="#DejaVuSans-2d" x="847.640625"/>
      <use xlink:href="#DejaVuSans-70" x="883.724609"/>
      <use xlink:href="#DejaVuSans-72" x="947.201172"/>
      <use xlink:href="#DejaVuSans-6f" x="986.064453"/>
      <use xlink:href="#DejaVuSans-6a" x="1047.246094"/>
      <use xlink:href="#DejaVuSans-65" x="1075.029297"/>
      <use xlink:href="#DejaVuSans-63" x="1136.552734"/>
      <use xlink:href="#DejaVuSans-74" x="1191.533203"/>
      <use xlink:href="#DejaVuSans-2e" x="1230.742188"/>
      <use xlink:href="#DejaVuSans-6f" x="1262.529297"/>
      <use xlink:href="#DejaVuSans-72" x="1323.710938"/>
      <use xlink:href="#DejaVuSans-67" x="1363.074219"/>
      <use xlink:href="#DejaVuSans-2f" x="1426.550781"/>
      <use xlink:href="#DejaVuSans-77" x="1460.242188"/>
      <use xlink:href="#DejaVuSans-77" x="1542.029297"/>
      <use xlink:href="#DejaVuSans-31" x="1623.816406"/>
      <use xlink:href="#DejaVuSans-2f" x="1687.439453"/>
      <use xlink:href="#DejaVuSans-6d" x="1721.130859"/>
      <use xlink:href="#DejaVuSans-75" x="1818.542969"/>
      <use xlink:href="#DejaVuSans-6e" x="1881.921875"/>
      <use xlink:href="#DejaVuSans-69" x="1945.300781"/>
      <use xlink:href="#DejaVuSans-6e" x="1973.083984"/>
      <use xlink:href="#DejaVuSans-6e" x="2036.462891"/>
      <use xlink:href="#DejaVuSans-2d" x="2099.841797"/>
      <use xlink:href="#DejaVuSans-77" x="2135.925781"/>
      <use xlink:href="#DejaVuSans-77" x="2217.712891"/>
      <use xlink:href="#DejaVuSans-31" x="2299.5"/>
      <use xlink:href="#DejaVuSans-2d" x="2363.123047"/>
      <use xlink:href="#DejaVuSans-64" x="2399.207031"/>
      <use xlink:href="#DejaVuSans-61" x="2462.683594"/>
      <use xlink:href="#DejaVuSans-74" x="2523.962891"/>
      <use xlink:href="#DejaVuSans-61" x="2563.171875"/>
      <use xlink:href="#DejaVuSans-73" x="2624.451172"/>
      <use xlink:href="#DejaVuSans-65" x="2676.550781"/>
      <use xlink:href="#DejaVuSans-74" x="2738.074219"/>
     </g>
    </g>
   </g>
  </g>
  <g id="axes_2">
   <g id="patch_7">
    <path d="M 570.24 252 
C 570.24 240.45145 567.965187 229.015195 563.545749 218.345726 
C 559.12631 207.676256 552.648192 197.981068 544.482133 189.815009 
C 536.316075 181.648951 526.620886 175.170833 515.951417 170.751394 
C 505.281948 166.331955 493.845693 164.057143 482.297143 164.057143 
C 470.748593 164.057143 459.312338 166.331955 448.642868 170.751394 
C 437.973399 175.170833 428.27821 181.648951 420.112152 189.815009 
C 411.946094 197.981068 405.467976 207.676256 401.048537 218.345726 
C 396.629098 229.015195 394.354286 240.45145 394.354286 252 
C 394.354286 263.54855 396.629098 274.984805 401.048537 285.654274 
C 405.467976 296.323744 411.946094 306.018932 420.112152 314.184991 
C 428.27821 322.351049 437.973399 328.829167 448.642868 333.248606 
C 459.312338 337.668045 470.748593 339.942857 482.297143 339.942857 
C 493.845693 339.942857 505.281948 337.668045 515.951417 333.248606 
C 526.620886 328.829167 536.316075 322.351049 544.482133 314.184991 
C 552.648192 306.018932 559.12631 296.323744 563.545749 285.654274 
C 567.965187 274.984805 570.24 263.54855 570.24 252 
M 482.297143 252 
C 482.297143 252 482.297143 252 482.297143 252 
C 482.297143 252 482.297143 252 482.297143 252 
C 482.297143 252 482.297143 252 482.297143 252 
C 482.297143 252 482.297143 252 482.297143 252 
C 482.297143 252 482.297143 252 482.297143 252 
C 482.297143 252 482.297143 252 482.297143 252 
C 482.297143 252 482.297143 252 482.297143 252 
C 482.297143 252 482.297143 252 482.297143 252 
C 482.297143 252 482.297143 252 482.297143 252 
C 482.297143 252 482.297143 252 482.297143 252 
C 482.297143 252 482.297143 252 482.297143 252 
C 482.297143 252 482.297143 252 482.297143 252 
C 482.297143 252 482.297143 252 482.297143 252 
C 482.297143 252 482.297143 252 482.297143 252 
C 482.297143 252 482.297143 252 482.297143 252 
C 482.297143 252 482.297143 252 482.297143 252 
M 570.24 252 
z
" style="fill: #fbfbfc"/>
   </g>
   <g id="patch_8">
    <path d="M 482.297143 204.364286 
L 506.097377 265.741071 
L 451.19817 269.955 
z
" clip-path="url(#paccc1c294c)" style="fill: #006400; opacity: 0.25; stroke: #006400; stroke-linejoin: miter"/>
   </g>
   <g id="patch_9">
    <path d="M 482.297143 205.280357 
L 482.297143 252 
L 439.139386 276.917143 
z
" clip-path="url(#paccc1c294c)" style="fill: #6495ed; opacity: 0.25; stroke: #6495ed; stroke-linejoin: miter"/>
   </g>
   <g id="matplotlib.axis_3">
    <g id="xtick_5">
     <g id="line2d_17">
      <path d="M 482.297143 252 
L 482.297143 164.057143 
" clip-path="url(#paccc1c294c)" style="fill: none; stroke: #aaaaaa; stroke-width: 0.8; stroke-linecap: square"/>
     </g>
     <g id="text_11">
      <!-- Data -->
      <g style="fill: #222222" transform="translate(467.971205 146.649705) scale(0.12 -0.12)">
       <use xlink:href="#DejaVuSans-44"/>
       <use xlink:href="#DejaVuSans-61" x="77.001953"/>
       <use xlink:href="#DejaVuSans-74" x="138.28125"/>
       <use xlink:href="#DejaVuSans-61" x="177.490234"/>
      </g>
      <!-- Collection -->
      <g style="fill: #222222" transform="translate(452.618705 160.08708) scale(0.12 -0.12)">
       <use xlink:href="#DejaVuSans-43"/>
       <use xlink:href="#DejaVuSans-6f" x="69.824219"/>
       <use xlink:href="#DejaVuSans-6c" x="131.005859"/>
       <use xlink:href="#DejaVuSans-6c" x="158.789062"/>
       <use xlink:href="#DejaVuSans-65" x="186.572266"/>
       <use xlink:href="#DejaVuSans-63" x="248.095703"/>
       <use xlink:href="#DejaVuSans-74" x="303.076172"/>
       <use xlink:href="#DejaVuSans-69" x="342.285156"/>
       <use xlink:href="#DejaVuSans-6f" x="370.068359"/>
       <use xlink:href="#DejaVuSans-6e" x="431.25"/>
      </g>
     </g>
    </g>
    <g id="xtick_6">
     <g id="line2d_18">
      <path d="M 482.297143 252 
L 558.457891 295.971429 
" clip-path="url(#paccc1c294c)" style="fill: none; stroke: #aaaaaa; stroke-width: 0.8; stroke-linecap: square"/>
     </g>
     <g id="text_12">
      <!-- Data -->
      <g style="fill: #222222" transform="translate(566.774209 297.36542) scale(0.12 -0.12)">
       <use xlink:href="#DejaVuSans-44"/>
       <use xlink:href="#DejaVuSans-61" x="77.001953"/>
       <use xlink:href="#DejaVuSans-74" x="138.28125"/>
       <use xlink:href="#DejaVuSans-61" x="177.490234"/>
      </g>
      <!-- Maintenance -->
      <g style="fill: #222222" transform="translate(566.774209 310.802795) scale(0.12 -0.12)">
       <use xlink:href="#DejaVuSans-4d"/>
       <use xlink:href="#DejaVuSans-61" x="86.279297"/>
       <use xlink:href="#DejaVuSans-69" x="147.558594"/>
       <use xlink:href="#DejaVuSans-6e" x="175.341797"/>
       <use xlink:href="#DejaVuSans-74" x="238.720703"/>
       <use xlink:href="#DejaVuSans-65" x="277.929688"/>
       <use xlink:href="#DejaVuSans-6e" x="339.453125"/>
       <use xlink:href="#DejaVuSans-61" x="402.832031"/>
       <use xlink:href="#DejaVuSans-6e" x="464.111328"/>
       <use xlink:href="#DejaVuSans-63" x="527.490234"/>
       <use xlink:href="#DejaVuSans-65" x="582.470703"/>
      </g>
     </g>
    </g>
    <g id="xtick_7">
     <g id="line2d_19">
      <path d="M 482.297143 252 
L 406.136394 295.971429 
" clip-path="url(#paccc1c294c)" style="fill: none; stroke: #aaaaaa; stroke-width: 0.8; stroke-linecap: square"/>
     </g>
     <g id="text_13">
      <!-- Data -->
      <g style="fill: #222222" transform="translate(369.168201 297.36542) scale(0.12 -0.12)">
       <use xlink:href="#DejaVuSans-44"/>
       <use xlink:href="#DejaVuSans-61" x="77.001953"/>
       <use xlink:href="#DejaVuSans-74" x="138.28125"/>
       <use xlink:href="#DejaVuSans-61" x="177.490234"/>
      </g>
      <!-- Usage -->
      <g style="fill: #222222" transform="translate(360.430701 310.802795) scale(0.12 -0.12)">
       <use xlink:href="#DejaVuSans-55"/>
       <use xlink:href="#DejaVuSans-73" x="73.193359"/>
       <use xlink:href="#DejaVuSans-61" x="125.292969"/>
       <use xlink:href="#DejaVuSans-67" x="186.572266"/>
       <use xlink:href="#DejaVuSans-65" x="250.048828"/>
      </g>
     </g>
    </g>
    <g id="xtick_8">
     <g id="line2d_20">
      <path d="M 482.297143 252 
L 482.297143 164.057143 
" clip-path="url(#paccc1c294c)" style="fill: none; stroke: #aaaaaa; stroke-width: 0.8; stroke-linecap: square"/>
     </g>
     <g id="text_14">
      <!-- Data -->
      <g style="fill: #222222" transform="translate(467.971205 146.649705) scale(0.12 -0.12)">
       <use xlink:href="#DejaVuSans-44"/>
       <use xlink:href="#DejaVuSans-61" x="77.001953"/>
       <use xlink:href="#DejaVuSans-74" x="138.28125"/>
       <use xlink:href="#DejaVuSans-61" x="177.490234"/>
      </g>
      <!-- Collection -->
      <g style="fill: #222222" transform="translate(452.618705 160.08708) scale(0.12 -0.12)">
       <use xlink:href="#DejaVuSans-43"/>
       <use xlink:href="#DejaVuSans-6f" x="69.824219"/>
       <use xlink:href="#DejaVuSans-6c" x="131.005859"/>
       <use xlink:href="#DejaVuSans-6c" x="158.789062"/>
       <use xlink:href="#DejaVuSans-65" x="186.572266"/>
       <use xlink:href="#DejaVuSans-63" x="248.095703"/>
       <use xlink:href="#DejaVuSans-74" x="303.076172"/>
       <use xlink:href="#DejaVuSans-69" x="342.285156"/>
       <use xlink:href="#DejaVuSans-6f" x="370.068359"/>
       <use xlink:href="#DejaVuSans-6e" x="431.25"/>
      </g>
     </g>
    </g>
   </g>
   <g id="matplotlib.axis_4">
    <g id="ytick_9">
     <g id="line2d_21">
      <path d="M 482.297143 241.007143 
C 483.740712 241.007143 485.170244 241.291494 486.503927 241.843924 
C 487.837611 242.396354 489.049509 243.206119 490.070267 244.226876 
C 491.091024 245.247633 491.900789 246.459532 492.453219 247.793216 
C 493.005648 249.126899 493.29 250.556431 493.29 252 
C 493.29 253.443569 493.005648 254.873101 492.453219 256.206784 
C 491.900789 257.540468 491.091024 258.752367 490.070267 259.773124 
C 489.049509 260.793881 487.837611 261.603646 486.503927 262.156076 
C 485.170244 262.708506 483.740712 262.992857 482.297143 262.992857 
C 480.853574 262.992857 479.424042 262.708506 478.090359 262.156076 
C 476.756675 261.603646 475.544776 260.793881 474.524019 259.773124 
C 473.503262 258.752367 472.693497 257.540468 472.141067 256.206784 
C 471.588637 254.873101 471.304286 253.443569 471.304286 252 
C 471.304286 250.556431 471.588637 249.126899 472.141067 247.793216 
C 472.693497 246.459532 473.503262 245.247633 474.524019 244.226876 
C 475.544776 243.206119 476.756675 242.396354 478.090359 241.843924 
C 479.424042 241.291494 480.853574 241.007143 482.297143 241.007143 
" clip-path="url(#paccc1c294c)" style="fill: none; stroke-dasharray: 2.96,1.28; stroke-dashoffset: 0; stroke: #aaaaaa; stroke-width: 0.8"/>
     </g>
     <g id="text_15">
      <!-- 20% -->
      <g style="fill: #222222" transform="translate(490.070267 241.731251) scale(0.12 -0.12)">
       <use xlink:href="#DejaVuSans-32"/>
       <use xlink:href="#DejaVuSans-30" x="63.623047"/>
       <use xlink:href="#DejaVuSans-25" x="127.246094"/>
      </g>
     </g>
    </g>
    <g id="ytick_10">
     <g id="line2d_22">
      <path d="M 482.297143 230.014286 
C 485.18428 230.014286 488.043344 230.582989 490.710711 231.687849 
C 493.378079 232.792708 495.801876 234.412238 497.843391 236.453752 
C 499.884905 238.495267 501.504435 240.919064 502.609294 243.586431 
C 503.714154 246.253799 504.282857 249.112862 504.282857 252 
C 504.282857 254.887138 503.714154 257.746201 502.609294 260.413569 
C 501.504435 263.080936 499.884905 265.504733 497.843391 267.546248 
C 495.801876 269.587762 493.378079 271.207292 490.710711 272.312151 
C 488.043344 273.417011 485.18428 273.985714 482.297143 273.985714 
C 479.410005 273.985714 476.550942 273.417011 473.883574 272.312151 
C 471.216207 271.207292 468.79241 269.587762 466.750895 267.546248 
C 464.709381 265.504733 463.089851 263.080936 461.984991 260.413569 
C 460.880132 257.746201 460.311429 254.887138 460.311429 252 
C 460.311429 249.112862 460.880132 246.253799 461.984991 243.586431 
C 463.089851 240.919064 464.709381 238.495267 466.750895 236.453752 
C 468.79241 234.412238 471.216207 232.792708 473.883574 231.687849 
C 476.550942 230.582989 479.410005 230.014286 482.297143 230.014286 
" clip-path="url(#paccc1c294c)" style="fill: none; stroke: #aaaaaa; stroke-width: 0.8; stroke-linecap: square"/>
     </g>
    </g>
    <g id="ytick_11">
     <g id="line2d_23">
      <path d="M 482.297143 219.021429 
C 486.627849 219.021429 490.916445 219.874483 494.917496 221.531773 
C 498.918547 223.189062 502.554243 225.618357 505.616514 228.680629 
C 508.678786 231.7429 511.10808 235.378596 512.76537 239.379647 
C 514.42266 243.380698 515.275714 247.669294 515.275714 252 
C 515.275714 256.330706 514.42266 260.619302 512.76537 264.620353 
C 511.10808 268.621404 508.678786 272.2571 505.616514 275.319371 
C 502.554243 278.381643 498.918547 280.810938 494.917496 282.468227 
C 490.916445 284.125517 486.627849 284.978571 482.297143 284.978571 
C 477.966437 284.978571 473.677841 284.125517 469.67679 282.468227 
C 465.675739 280.810938 462.040043 278.381643 458.977771 275.319371 
C 455.9155 272.2571 453.486205 268.621404 451.828916 264.620353 
C 450.171626 260.619302 449.318571 256.330706 449.318571 252 
C 449.318571 247.669294 450.171626 243.380698 451.828916 239.379647 
C 453.486205 235.378596 455.9155 231.7429 458.977771 228.680629 
C 462.040043 225.618357 465.675739 223.189062 469.67679 221.531773 
C 473.677841 219.874483 477.966437 219.021429 482.297143 219.021429 
" clip-path="url(#paccc1c294c)" style="fill: none; stroke-dasharray: 2.96,1.28; stroke-dashoffset: 0; stroke: #aaaaaa; stroke-width: 0.8"/>
     </g>
     <g id="text_16">
      <!-- 40% -->
      <g style="fill: #222222" transform="translate(505.616514 226.185004) scale(0.12 -0.12)">
       <use xlink:href="#DejaVuSans-34"/>
       <use xlink:href="#DejaVuSans-30" x="63.623047"/>
       <use xlink:href="#DejaVuSans-25" x="127.246094"/>
      </g>
     </g>
    </g>
    <g id="ytick_12">
     <g id="line2d_24">
      <path d="M 482.297143 208.028571 
C 488.071418 208.028571 493.789545 209.165978 499.12428 211.375697 
C 504.459015 213.585417 509.306609 216.824476 513.389638 220.907505 
C 517.472667 224.990534 520.711726 229.838128 522.921446 235.172863 
C 525.131165 240.507597 526.268571 246.225725 526.268571 252 
C 526.268571 257.774275 525.131165 263.492403 522.921446 268.827137 
C 520.711726 274.161872 517.472667 279.009466 513.389638 283.092495 
C 509.306609 287.175524 504.459015 290.414583 499.12428 292.624303 
C 493.789545 294.834022 488.071418 295.971429 482.297143 295.971429 
C 476.522868 295.971429 470.80474 294.834022 465.470006 292.624303 
C 460.135271 290.414583 455.287677 287.175524 451.204648 283.092495 
C 447.121618 279.009466 443.882559 274.161872 441.67284 268.827137 
C 439.463121 263.492403 438.325714 257.774275 438.325714 252 
C 438.325714 246.225725 439.463121 240.507597 441.67284 235.172863 
C 443.882559 229.838128 447.121618 224.990534 451.204648 220.907505 
C 455.287677 216.824476 460.135271 213.585417 465.470006 211.375697 
C 470.80474 209.165978 476.522868 208.028571 482.297143 208.028571 
" clip-path="url(#paccc1c294c)" style="fill: none; stroke: #aaaaaa; stroke-width: 0.8; stroke-linecap: square"/>
     </g>
    </g>
    <g id="ytick_13">
     <g id="line2d_25">
      <path d="M 482.297143 197.035714 
C 489.514987 197.035714 496.662646 198.457472 503.331064 201.219621 
C 509.999483 203.981771 516.058976 208.030595 521.162762 213.134381 
C 526.266548 218.238167 530.315372 224.29766 533.077521 230.966078 
C 535.839671 237.634497 537.261429 244.782156 537.261429 252 
C 537.261429 259.217844 535.839671 266.365503 533.077521 273.033922 
C 530.315372 279.70234 526.266548 285.761833 521.162762 290.865619 
C 516.058976 295.969405 509.999483 300.018229 503.331064 302.780379 
C 496.662646 305.542528 489.514987 306.964286 482.297143 306.964286 
C 475.079299 306.964286 467.93164 305.542528 461.263221 302.780379 
C 454.594803 300.018229 448.53531 295.969405 443.431524 290.865619 
C 438.327737 285.761833 434.278914 279.70234 431.516764 273.033922 
C 428.754615 266.365503 427.332857 259.217844 427.332857 252 
C 427.332857 244.782156 428.754615 237.634497 431.516764 230.966078 
C 434.278914 224.29766 438.327737 218.238167 443.431524 213.134381 
C 448.53531 208.030595 454.594803 203.981771 461.263221 201.219621 
C 467.93164 198.457472 475.079299 197.035714 482.297143 197.035714 
" clip-path="url(#paccc1c294c)" style="fill: none; stroke-dasharray: 2.96,1.28; stroke-dashoffset: 0; stroke: #aaaaaa; stroke-width: 0.8"/>
     </g>
     <g id="text_17">
      <!-- 60% -->
      <g style="fill: #222222" transform="translate(521.162762 210.638756) scale(0.12 -0.12)">
       <use xlink:href="#DejaVuSans-36"/>
       <use xlink:href="#DejaVuSans-30" x="63.623047"/>
       <use xlink:href="#DejaVuSans-25" x="127.246094"/>
      </g>
     </g>
    </g>
    <g id="ytick_14">
     <g id="line2d_26">
      <path d="M 482.297143 186.042857 
C 490.958555 186.042857 499.535747 187.748967 507.537849 191.063546 
C 515.539951 194.378125 522.811342 199.236713 528.935886 205.361257 
C 535.060429 211.485801 539.919018 218.757192 543.233597 226.759294 
C 546.548176 234.761396 548.254286 243.338587 548.254286 252 
C 548.254286 260.661413 546.548176 269.238604 543.233597 277.240706 
C 539.919018 285.242808 535.060429 292.514199 528.935886 298.638743 
C 522.811342 304.763287 515.539951 309.621875 507.537849 312.936454 
C 499.535747 316.251033 490.958555 317.957143 482.297143 317.957143 
C 473.63573 317.957143 465.058539 316.251033 457.056437 312.936454 
C 449.054335 309.621875 441.782943 304.763287 435.6584 298.638743 
C 429.533856 292.514199 424.675268 285.242808 421.360689 277.240706 
C 418.046109 269.238604 416.34 260.661413 416.34 252 
C 416.34 243.338587 418.046109 234.761396 421.360689 226.759294 
C 424.675268 218.757192 429.533856 211.485801 435.6584 205.361257 
C 441.782943 199.236713 449.054335 194.378125 457.056437 191.063546 
C 465.058539 187.748967 473.63573 186.042857 482.297143 186.042857 
" clip-path="url(#paccc1c294c)" style="fill: none; stroke: #aaaaaa; stroke-width: 0.8; stroke-linecap: square"/>
     </g>
    </g>
    <g id="ytick_15">
     <g id="line2d_27">
      <path d="M 482.297143 175.05 
C 492.402124 175.05 502.408847 177.040461 511.744633 180.90747 
C 521.080418 184.774479 529.563709 190.442832 536.70901 197.588133 
C 543.854311 204.733434 549.522664 213.216724 553.389673 222.55251 
C 557.256682 231.888295 559.247143 241.895019 559.247143 252 
C 559.247143 262.104981 557.256682 272.111705 553.389673 281.44749 
C 549.522664 290.783276 543.854311 299.266566 536.70901 306.411867 
C 529.563709 313.557168 521.080418 319.225521 511.744633 323.09253 
C 502.408847 326.959539 492.402124 328.95 482.297143 328.95 
C 472.192161 328.95 462.185438 326.959539 452.849653 323.09253 
C 443.513867 319.225521 435.030577 313.557168 427.885276 306.411867 
C 420.739975 299.266566 415.071622 290.783276 411.204613 281.44749 
C 407.337604 272.111705 405.347143 262.104981 405.347143 252 
C 405.347143 241.895019 407.337604 231.888295 411.204613 222.55251 
C 415.071622 213.216724 420.739975 204.733434 427.885276 197.588133 
C 435.030577 190.442832 443.513867 184.774479 452.849653 180.90747 
C 462.185438 177.040461 472.192161 175.05 482.297143 175.05 
" clip-path="url(#paccc1c294c)" style="fill: none; stroke-dasharray: 2.96,1.28; stroke-dashoffset: 0; stroke: #aaaaaa; stroke-width: 0.8"/>
     </g>
     <g id="text_18">
      <!-- 80% -->
      <g style="fill: #222222" transform="translate(536.70901 195.092508) scale(0.12 -0.12)">
       <use xlink:href="#DejaVuSans-38"/>
       <use xlink:href="#DejaVuSans-30" x="63.623047"/>
       <use xlink:href="#DejaVuSans-25" x="127.246094"/>
      </g>
     </g>
    </g>
    <g id="ytick_16">
     <g id="line2d_28">
      <path d="M 482.297143 164.057143 
C 493.845693 164.057143 505.281948 166.331955 515.951417 170.751394 
C 526.620886 175.170833 536.316075 181.648951 544.482133 189.815009 
C 552.648192 197.981068 559.12631 207.676256 563.545749 218.345726 
C 567.965187 229.015195 570.24 240.45145 570.24 252 
C 570.24 263.54855 567.965187 274.984805 563.545749 285.654274 
C 559.12631 296.323744 552.648192 306.018932 544.482133 314.184991 
C 536.316075 322.351049 526.620886 328.829167 515.951417 333.248606 
C 505.281948 337.668045 493.845693 339.942857 482.297143 339.942857 
C 470.748593 339.942857 459.312338 337.668045 448.642868 333.248606 
C 437.973399 328.829167 428.27821 322.351049 420.112152 314.184991 
C 411.946094 306.018932 405.467976 296.323744 401.048537 285.654274 
C 396.629098 274.984805 394.354286 263.54855 394.354286 252 
C 394.354286 240.45145 396.629098 229.015195 401.048537 218.345726 
C 405.467976 207.676256 411.946094 197.981068 420.112152 189.815009 
C 428.27821 181.648951 437.973399 175.170833 448.642868 170.751394 
C 459.312338 166.331955 470.748593 164.057143 482.297143 164.057143 
" clip-path="url(#paccc1c294c)" style="fill: none; stroke: #aaaaaa; stroke-width: 0.8; stroke-linecap: square"/>
     </g>
    </g>
   </g>
   <g id="line2d_29">
    <path d="M 482.297143 204.364286 
L 506.097377 265.741071 
L 451.19817 269.955 
L 482.297143 204.364286 
" clip-path="url(#paccc1c294c)" style="fill: none; stroke: #006400; stroke-linecap: square"/>
   </g>
   <g id="line2d_30">
    <path d="M 482.297143 205.280357 
L 482.297143 252 
L 439.139386 276.917143 
L 482.297143 205.280357 
" clip-path="url(#paccc1c294c)" style="fill: none; stroke: #6495ed; stroke-linecap: square"/>
   </g>
   <g id="patch_10">
    <path d="M 482.297143 164.057143 
C 470.748593 164.057143 459.312338 166.331955 448.642868 170.751394 
C 437.973399 175.170833 428.27821 181.648951 420.112152 189.815009 
C 411.946094 197.981068 405.467976 207.676256 401.048537 218.345726 
C 396.629098 229.015195 394.354286 240.45145 394.354286 252 
C 394.354286 263.54855 396.629098 274.984805 401.048537 285.654274 
C 405.467976 296.323744 411.946094 306.018932 420.112152 314.184991 
C 428.27821 322.351049 437.973399 328.829167 448.642868 333.248606 
C 459.312338 337.668045 470.748593 339.942857 482.297143 339.942857 
C 493.845693 339.942857 505.281948 337.668045 515.951417 333.248606 
C 526.620886 328.829167 536.316075 322.351049 544.482133 314.184991 
C 552.648192 306.018932 559.12631 296.323744 563.545749 285.654274 
C 567.965187 274.984805 570.24 263.54855 570.24 252 
C 570.24 240.45145 567.965187 229.015195 563.545749 218.345726 
C 559.12631 207.676256 552.648192 197.981068 544.482133 189.815009 
C 536.316075 181.648951 526.620886 175.170833 515.951417 170.751394 
C 505.281948 166.331955 493.845693 164.057143 482.297143 164.057143 
" style="fill: none; stroke: #222222; stroke-width: 0.8; stroke-linejoin: miter; stroke-linecap: square"/>
   </g>
   <g id="legend_2">
    <g id="patch_11">
     <path d="M 356.009643 405.297143 
L 608.584643 405.297143 
Q 610.584643 405.297143 610.584643 403.297143 
L 610.584643 374.940893 
Q 610.584643 372.940893 608.584643 372.940893 
L 356.009643 372.940893 
Q 354.009643 372.940893 354.009643 374.940893 
L 354.009643 403.297143 
Q 354.009643 405.297143 356.009643 405.297143 
z
" style="fill: #ffffff; opacity: 0.8; stroke: #cccccc; stroke-linejoin: miter"/>
    </g>
    <g id="line2d_31">
     <path d="M 358.009643 381.03933 
L 368.009643 381.03933 
L 378.009643 381.03933 
" style="fill: none; stroke: #006400; stroke-linecap: square"/>
    </g>
    <g id="text_19">
     <!-- http://ns.inria.fr/covid19/covidontheweb-1-2 -->
     <g transform="translate(386.009643 384.53933) scale(0.1 -0.1)">
      <defs>
       <path id="DejaVuSans-76" d="M 191 3500 
L 800 3500 
L 1894 563 
L 2988 3500 
L 3597 3500 
L 2284 0 
L 1503 0 
L 191 3500 
z
" transform="scale(0.015625)"/>
       <path id="DejaVuSans-39" d="M 703 97 
L 703 672 
Q 941 559 1184 500 
Q 1428 441 1663 441 
Q 2288 441 2617 861 
Q 2947 1281 2994 2138 
Q 2813 1869 2534 1725 
Q 2256 1581 1919 1581 
Q 1219 1581 811 2004 
Q 403 2428 403 3163 
Q 403 3881 828 4315 
Q 1253 4750 1959 4750 
Q 2769 4750 3195 4129 
Q 3622 3509 3622 2328 
Q 3622 1225 3098 567 
Q 2575 -91 1691 -91 
Q 1453 -91 1209 -44 
Q 966 3 703 97 
z
M 1959 2075 
Q 2384 2075 2632 2365 
Q 2881 2656 2881 3163 
Q 2881 3666 2632 3958 
Q 2384 4250 1959 4250 
Q 1534 4250 1286 3958 
Q 1038 3666 1038 3163 
Q 1038 2656 1286 2365 
Q 1534 2075 1959 2075 
z
" transform="scale(0.015625)"/>
       <path id="DejaVuSans-62" d="M 3116 1747 
Q 3116 2381 2855 2742 
Q 2594 3103 2138 3103 
Q 1681 3103 1420 2742 
Q 1159 2381 1159 1747 
Q 1159 1113 1420 752 
Q 1681 391 2138 391 
Q 2594 391 2855 752 
Q 3116 1113 3116 1747 
z
M 1159 2969 
Q 1341 3281 1617 3432 
Q 1894 3584 2278 3584 
Q 2916 3584 3314 3078 
Q 3713 2572 3713 1747 
Q 3713 922 3314 415 
Q 2916 -91 2278 -91 
Q 1894 -91 1617 61 
Q 1341 213 1159 525 
L 1159 0 
L 581 0 
L 581 4863 
L 1159 4863 
L 1159 2969 
z
" transform="scale(0.015625)"/>
      </defs>
      <use xlink:href="#DejaVuSans-68"/>
      <use xlink:href="#DejaVuSans-74" x="63.378906"/>
      <use xlink:href="#DejaVuSans-74" x="102.587891"/>
      <use xlink:href="#DejaVuSans-70" x="141.796875"/>
      <use xlink:href="#DejaVuSans-3a" x="205.273438"/>
      <use xlink:href="#DejaVuSans-2f" x="238.964844"/>
      <use xlink:href="#DejaVuSans-2f" x="272.65625"/>
      <use xlink:href="#DejaVuSans-6e" x="306.347656"/>
      <use xlink:href="#DejaVuSans-73" x="369.726562"/>
      <use xlink:href="#DejaVuSans-2e" x="421.826172"/>
      <use xlink:href="#DejaVuSans-69" x="453.613281"/>
      <use xlink:href="#DejaVuSans-6e" x="481.396484"/>
      <use xlink:href="#DejaVuSans-72" x="544.775391"/>
      <use xlink:href="#DejaVuSans-69" x="585.888672"/>
      <use xlink:href="#DejaVuSans-61" x="613.671875"/>
      <use xlink:href="#DejaVuSans-2e" x="674.951172"/>
      <use xlink:href="#DejaVuSans-66" x="706.738281"/>
      <use xlink:href="#DejaVuSans-72" x="741.943359"/>
      <use xlink:href="#DejaVuSans-2f" x="783.056641"/>
      <use xlink:href="#DejaVuSans-63" x="816.748047"/>
      <use xlink:href="#DejaVuSans-6f" x="871.728516"/>
      <use xlink:href="#DejaVuSans-76" x="932.910156"/>
      <use xlink:href="#DejaVuSans-69" x="992.089844"/>
      <use xlink:href="#DejaVuSans-64" x="1019.873047"/>
      <use xlink:href="#DejaVuSans-31" x="1083.349609"/>
      <use xlink:href="#DejaVuSans-39" x="1146.972656"/>
      <use xlink:href="#DejaVuSans-2f" x="1210.595703"/>
      <use xlink:href="#DejaVuSans-63" x="1244.287109"/>
      <use xlink:href="#DejaVuSans-6f" x="1299.267578"/>
      <use xlink:href="#DejaVuSans-76" x="1360.449219"/>
      <use xlink:href="#DejaVuSans-69" x="1419.628906"/>
      <use xlink:href="#DejaVuSans-64" x="1447.412109"/>
      <use xlink:href="#DejaVuSans-6f" x="1510.888672"/>
      <use xlink:href="#DejaVuSans-6e" x="1572.070312"/>
      <use xlink:href="#DejaVuSans-74" x="1635.449219"/>
      <use xlink:href="#DejaVuSans-68" x="1674.658203"/>
      <use xlink:href="#DejaVuSans-65" x="1738.037109"/>
      <use xlink:href="#DejaVuSans-77" x="1799.560547"/>
      <use xlink:href="#DejaVuSans-65" x="1881.347656"/>
      <use xlink:href="#DejaVuSans-62" x="1942.871094"/>
      <use xlink:href="#DejaVuSans-2d" x="2006.347656"/>
      <use xlink:href="#DejaVuSans-31" x="2042.431641"/>
      <use xlink:href="#DejaVuSans-2d" x="2106.054688"/>
      <use xlink:href="#DejaVuSans-32" x="2142.138672"/>
     </g>
    </g>
    <g id="line2d_32">
     <path d="M 358.009643 395.717455 
L 368.009643 395.717455 
L 378.009643 395.717455 
" style="fill: none; stroke: #6495ed; stroke-linecap: square"/>
    </g>
    <g id="text_20">
     <!-- http://caligraph.org/.well-known/void -->
     <g transform="translate(386.009643 399.217455) scale(0.1 -0.1)">
      <defs>
       <path id="DejaVuSans-6b" d="M 581 4863 
L 1159 4863 
L 1159 1991 
L 2875 3500 
L 3609 3500 
L 1753 1863 
L 3688 0 
L 2938 0 
L 1159 1709 
L 1159 0 
L 581 0 
L 581 4863 
z
" transform="scale(0.015625)"/>
      </defs>
      <use xlink:href="#DejaVuSans-68"/>
      <use xlink:href="#DejaVuSans-74" x="63.378906"/>
      <use xlink:href="#DejaVuSans-74" x="102.587891"/>
      <use xlink:href="#DejaVuSans-70" x="141.796875"/>
      <use xlink:href="#DejaVuSans-3a" x="205.273438"/>
      <use xlink:href="#DejaVuSans-2f" x="238.964844"/>
      <use xlink:href="#DejaVuSans-2f" x="272.65625"/>
      <use xlink:href="#DejaVuSans-63" x="306.347656"/>
      <use xlink:href="#DejaVuSans-61" x="361.328125"/>
      <use xlink:href="#DejaVuSans-6c" x="422.607422"/>
      <use xlink:href="#DejaVuSans-69" x="450.390625"/>
      <use xlink:href="#DejaVuSans-67" x="478.173828"/>
      <use xlink:href="#DejaVuSans-72" x="541.650391"/>
      <use xlink:href="#DejaVuSans-61" x="582.763672"/>
      <use xlink:href="#DejaVuSans-70" x="644.042969"/>
      <use xlink:href="#DejaVuSans-68" x="707.519531"/>
      <use xlink:href="#DejaVuSans-2e" x="770.898438"/>
      <use xlink:href="#DejaVuSans-6f" x="802.685547"/>
      <use xlink:href="#DejaVuSans-72" x="863.867188"/>
      <use xlink:href="#DejaVuSans-67" x="903.230469"/>
      <use xlink:href="#DejaVuSans-2f" x="966.707031"/>
      <use xlink:href="#DejaVuSans-2e" x="1000.398438"/>
      <use xlink:href="#DejaVuSans-77" x="1032.185547"/>
      <use xlink:href="#DejaVuSans-65" x="1113.972656"/>
      <use xlink:href="#DejaVuSans-6c" x="1175.496094"/>
      <use xlink:href="#DejaVuSans-6c" x="1203.279297"/>
      <use xlink:href="#DejaVuSans-2d" x="1231.0625"/>
      <use xlink:href="#DejaVuSans-6b" x="1267.146484"/>
      <use xlink:href="#DejaVuSans-6e" x="1325.056641"/>
      <use xlink:href="#DejaVuSans-6f" x="1388.435547"/>
      <use xlink:href="#DejaVuSans-77" x="1449.617188"/>
      <use xlink:href="#DejaVuSans-6e" x="1531.404297"/>
      <use xlink:href="#DejaVuSans-2f" x="1594.783203"/>
      <use xlink:href="#DejaVuSans-76" x="1628.474609"/>
      <use xlink:href="#DejaVuSans-6f" x="1687.654297"/>
      <use xlink:href="#DejaVuSans-69" x="1748.835938"/>
      <use xlink:href="#DejaVuSans-64" x="1776.619141"/>
     </g>
    </g>
   </g>
  </g>
 </g>
 <defs>
  <clipPath id="p2d1c989195">
   <path d="M 253.645714 252 
C 253.645714 240.45145 251.370902 229.015195 246.951463 218.345726 
C 242.532024 207.676256 236.053906 197.981068 227.887848 189.815009 
C 219.72179 181.648951 210.026601 175.170833 199.357132 170.751394 
C 188.687662 166.331955 177.251407 164.057143 165.702857 164.057143 
C 154.154307 164.057143 142.718052 166.331955 132.048583 170.751394 
C 121.379114 175.170833 111.683925 181.648951 103.517867 189.815009 
C 95.351808 197.981068 88.87369 207.676256 84.454251 218.345726 
C 80.034813 229.015195 77.76 240.45145 77.76 252 
C 77.76 263.54855 80.034813 274.984805 84.454251 285.654274 
C 88.87369 296.323744 95.351808 306.018932 103.517867 314.184991 
C 111.683925 322.351049 121.379114 328.829167 132.048583 333.248606 
C 142.718052 337.668045 154.154307 339.942857 165.702857 339.942857 
C 177.251407 339.942857 188.687662 337.668045 199.357132 333.248606 
C 210.026601 328.829167 219.72179 322.351049 227.887848 314.184991 
C 236.053906 306.018932 242.532024 296.323744 246.951463 285.654274 
C 251.370902 274.984805 253.645714 263.54855 253.645714 252 
M 165.702857 252 
C 165.702857 252 165.702857 252 165.702857 252 
C 165.702857 252 165.702857 252 165.702857 252 
C 165.702857 252 165.702857 252 165.702857 252 
C 165.702857 252 165.702857 252 165.702857 252 
C 165.702857 252 165.702857 252 165.702857 252 
C 165.702857 252 165.702857 252 165.702857 252 
C 165.702857 252 165.702857 252 165.702857 252 
C 165.702857 252 165.702857 252 165.702857 252 
C 165.702857 252 165.702857 252 165.702857 252 
C 165.702857 252 165.702857 252 165.702857 252 
C 165.702857 252 165.702857 252 165.702857 252 
C 165.702857 252 165.702857 252 165.702857 252 
C 165.702857 252 165.702857 252 165.702857 252 
C 165.702857 252 165.702857 252 165.702857 252 
C 165.702857 252 165.702857 252 165.702857 252 
C 165.702857 252 165.702857 252 165.702857 252 
M 253.645714 252 
z
"/>
  </clipPath>
  <clipPath id="paccc1c294c">
   <path d="M 570.24 252 
C 570.24 240.45145 567.965187 229.015195 563.545749 218.345726 
C 559.12631 207.676256 552.648192 197.981068 544.482133 189.815009 
C 536.316075 181.648951 526.620886 175.170833 515.951417 170.751394 
C 505.281948 166.331955 493.845693 164.057143 482.297143 164.057143 
C 470.748593 164.057143 459.312338 166.331955 448.642868 170.751394 
C 437.973399 175.170833 428.27821 181.648951 420.112152 189.815009 
C 411.946094 197.981068 405.467976 207.676256 401.048537 218.345726 
C 396.629098 229.015195 394.354286 240.45145 394.354286 252 
C 394.354286 263.54855 396.629098 274.984805 401.048537 285.654274 
C 405.467976 296.323744 411.946094 306.018932 420.112152 314.184991 
C 428.27821 322.351049 437.973399 328.829167 448.642868 333.248606 
C 459.312338 337.668045 470.748593 339.942857 482.297143 339.942857 
C 493.845693 339.942857 505.281948 337.668045 515.951417 333.248606 
C 526.620886 328.829167 536.316075 322.351049 544.482133 314.184991 
C 552.648192 306.018932 559.12631 296.323744 563.545749 285.654274 
C 567.965187 274.984805 570.24 263.54855 570.24 252 
M 482.297143 252 
C 482.297143 252 482.297143 252 482.297143 252 
C 482.297143 252 482.297143 252 482.297143 252 
C 482.297143 252 482.297143 252 482.297143 252 
C 482.297143 252 482.297143 252 482.297143 252 
C 482.297143 252 482.297143 252 482.297143 252 
C 482.297143 252 482.297143 252 482.297143 252 
C 482.297143 252 482.297143 252 482.297143 252 
C 482.297143 252 482.297143 252 482.297143 252 
C 482.297143 252 482.297143 252 482.297143 252 
C 482.297143 252 482.297143 252 482.297143 252 
C 482.297143 252 482.297143 252 482.297143 252 
C 482.297143 252 482.297143 252 482.297143 252 
C 482.297143 252 482.297143 252 482.297143 252 
C 482.297143 252 482.297143 252 482.297143 252 
C 482.297143 252 482.297143 252 482.297143 252 
C 482.297143 252 482.297143 252 482.297143 252 
M 570.24 252 
z
"/>
  </clipPath>
 </defs>
</svg>
